<svg version="1.1" id="Layer_1" xmlns="http://www.w3.org/2000/svg" xmlns:xlink="http://www.w3.org/1999/xlink" x="0px" y="0px"
	 width="100%" viewBox="0 0 1024 912" enable-background="new 0 0 1024 912" xml:space="preserve">
<path fill="#000000" opacity="1.000000" stroke="none" 
	d="
M260.961182,595.868591 
	C259.949066,597.378296 259.606293,598.974792 257.728363,599.710876 
	C257.356842,599.472534 256.631836,599.262207 256.346832,598.787659 
	C246.321671,582.095215 235.397491,565.844116 229.316238,547.117920 
	C220.840790,521.019104 224.740738,495.757904 235.446381,471.241364 
	C250.894135,435.865143 276.691650,409.494446 308.580872,388.618866 
	C322.817566,379.299133 337.584412,370.897369 353.362549,364.446533 
	C356.475647,363.173798 356.903503,360.937042 357.409668,358.263184 
	C359.675781,346.292847 367.029663,338.781830 378.568726,336.516418 
	C391.434875,333.990479 405.532715,344.376465 407.168060,357.585754 
	C408.960236,372.061859 398.780426,385.283722 385.111725,386.346466 
	C377.993927,386.899902 371.486816,385.501984 366.051086,380.651642 
	C364.374481,379.155609 362.959625,378.593262 360.740631,379.675018 
	C324.003876,397.584106 291.923340,421.075775 270.185120,456.518127 
	C255.574463,480.339569 249.138214,506.009491 255.281769,533.959900 
	C255.956467,537.029541 256.800629,540.039917 258.373535,543.098145 
	C261.310333,541.862488 262.039520,539.119263 263.321472,536.975525 
	C281.018616,507.382599 298.169464,477.447723 316.930359,448.514435 
	C328.628754,430.473053 345.549591,418.552277 365.531769,410.904572 
	C366.611206,410.491455 367.765503,410.259583 368.900604,410.016510 
	C369.173309,409.958069 369.508698,410.192444 370.920074,410.651520 
	C334.240509,472.435547 297.692230,533.998352 260.961182,595.868591 
z"/>
<path fill="#000000" opacity="1.000000" stroke="none" 
	d="
M538.020996,403.100769 
	C535.910706,412.999603 531.905518,421.982483 528.607971,431.200623 
	C518.351990,459.870514 507.815826,488.440247 497.596954,517.123169 
	C496.277405,520.826904 494.252350,522.044556 490.628510,521.917175 
	C483.311646,521.659851 475.989166,521.524231 468.667938,521.452515 
	C466.571533,521.431946 465.345154,520.804504 464.579590,518.691895 
	C450.974243,481.146454 437.297455,443.626862 423.659973,406.093018 
	C423.335632,405.200378 423.286377,404.207764 423.025787,402.819702 
	C427.918518,401.270844 432.745667,401.982513 437.448639,402.029694 
	C453.047241,402.186218 449.563507,399.448914 454.817444,414.399231 
	C462.761414,437.004150 470.578857,459.653534 478.472931,482.276062 
	C478.959198,483.669586 479.645111,484.993408 480.399078,486.717712 
	C482.470001,484.649017 482.860138,482.164215 483.647430,479.920349 
	C492.075897,455.897552 500.542603,431.887543 508.797913,407.805206 
	C510.256744,403.549500 512.361816,401.441742 517.066162,401.903229 
	C523.964844,402.579895 530.977356,400.920715 538.020996,403.100769 
z"/>
<path fill="#000000" opacity="1.000000" stroke="none" 
	d="
M814.134460,442.113617 
	C830.380554,427.844635 847.201233,426.916992 870.733093,439.156158 
	C870.634338,430.638000 876.756348,432.858582 881.561768,432.705475 
	C884.722900,432.604706 887.897461,432.803314 891.050781,432.614136 
	C894.476807,432.408630 895.934570,433.879242 895.918457,437.242004 
	C895.841919,453.227417 895.828491,469.213165 895.768066,485.198639 
	C895.729065,495.507629 895.472595,505.819916 895.675110,516.123596 
	C895.752075,520.042114 894.575806,521.662720 890.616943,521.439392 
	C887.131042,521.242737 883.625183,521.393860 880.128113,521.403625 
	C872.476013,521.424866 872.476013,521.428101 871.046936,514.061401 
	C870.425964,514.312805 869.739685,514.409851 869.304749,514.792542 
	C848.518066,533.082764 808.590088,523.422058 801.031677,488.830780 
	C797.216187,471.369171 800.774109,455.409058 814.134460,442.113617 
M834.015991,457.450409 
	C828.311707,461.204468 825.738220,466.855103 824.607239,473.290894 
	C823.022644,482.308105 827.369202,492.151611 835.207336,496.984131 
	C844.114563,502.475800 853.025635,501.583862 861.550598,496.123566 
	C869.018311,491.340424 872.691956,481.539948 870.823242,472.485779 
	C867.362915,455.719849 850.213928,448.412781 834.015991,457.450409 
z"/>
<path fill="#000000" opacity="1.000000" stroke="none" 
	d="
M151.120956,423.813995 
	C145.549026,414.380463 140.159119,405.264404 134.844513,396.275665 
	C136.847412,394.106476 138.792496,394.740997 140.514130,394.737427 
	C168.847061,394.678894 197.180435,394.734436 225.512741,394.584686 
	C229.157700,394.565430 231.353760,395.777924 233.116867,398.910248 
	C237.365784,406.458984 241.855759,413.872986 246.306992,421.306274 
	C247.690674,423.616943 248.272110,425.657776 246.447800,428.168976 
	C242.239151,433.962311 238.178741,439.870697 234.261688,445.865387 
	C232.267502,448.917297 230.644165,448.961334 228.805206,445.925507 
	C224.749161,439.229645 220.699173,432.530060 216.669708,425.818176 
	C215.729630,424.252258 215.046005,422.348358 212.819778,422.338135 
	C203.538239,422.295593 194.256409,422.320221 185.129135,422.320221 
	C184.062851,425.201263 185.766815,426.683594 186.729507,428.293579 
	C196.306595,444.310150 205.890228,460.323547 215.622955,476.245575 
	C217.429550,479.201019 217.754578,481.839111 216.748535,485.172699 
	C213.364990,496.384155 211.616333,507.890381 211.428833,519.618958 
	C211.419296,520.215637 211.177444,520.808655 211.043762,521.403320 
	C210.585663,521.607117 210.127563,521.810913 209.669449,522.014709 
	C190.213959,489.386963 170.758469,456.759186 151.120956,423.813995 
z"/>
<path fill="#000000" opacity="1.000000" stroke="none" 
	d="
M643.669495,506.278748 
	C631.781250,490.404541 630.447693,468.705383 640.176697,452.913818 
	C650.505127,436.149323 670.865601,427.328369 690.605225,431.066315 
	C710.555054,434.844086 725.180420,449.405396 728.808411,469.102203 
	C733.655029,495.415466 714.356140,520.714111 687.662292,523.345459 
	C670.179749,525.068848 655.533936,519.848633 643.669495,506.278748 
M703.623230,470.075592 
	C702.879272,468.403931 702.268188,466.656860 701.369507,465.072998 
	C696.157654,455.887299 684.372375,451.549377 674.014648,454.933868 
	C664.394653,458.077240 657.409363,468.699005 658.408569,478.664429 
	C659.890259,493.443024 671.799255,502.269897 686.706482,499.638641 
	C698.924988,497.481964 706.966675,483.954712 703.623230,470.075592 
z"/>
<path fill="#000000" opacity="1.000000" stroke="none" 
	d="
M628.570801,444.496246 
	C617.692749,473.001495 607.163696,501.224579 596.153625,529.258789 
	C589.006653,547.456848 573.888306,556.921997 554.861023,556.372925 
	C551.008972,556.261780 549.430969,554.962524 549.637451,551.056519 
	C549.856873,546.906128 549.820068,542.725830 549.604858,538.573669 
	C549.409973,534.813721 550.487366,533.169800 554.667175,533.382874 
	C559.623291,533.635559 564.169617,531.805908 567.858704,528.350952 
	C573.027588,523.510071 574.156616,518.192871 571.463135,511.860229 
	C561.171875,487.664337 550.865295,463.474976 540.578857,439.277039 
	C539.813232,437.475891 538.818054,435.698425 539.390747,432.627655 
	C547.427002,432.627655 555.506897,432.471771 563.573792,432.726074 
	C565.885010,432.798981 566.194031,435.523071 566.897949,437.310760 
	C572.629150,451.864105 578.280640,466.448822 583.984802,481.012848 
	C584.636414,482.676453 584.934998,484.569244 586.619995,485.757965 
	C588.691162,484.684601 588.823364,482.485748 589.461670,480.708008 
	C594.577820,466.458649 599.718445,452.215210 604.551086,437.868744 
	C605.896362,433.875153 607.926331,432.347168 612.138367,432.558929 
	C618.573364,432.882416 625.036743,432.643768 631.617493,432.643768 
	C632.196289,437.353516 629.740601,440.561371 628.570801,444.496246 
z"/>
<path fill="#000000" opacity="1.000000" stroke="none" 
	d="
M742.919678,477.000000 
	C742.915100,464.007111 742.896118,451.514221 742.912354,439.021362 
	C742.920349,432.839355 743.109131,432.678894 749.459961,432.657501 
	C753.457642,432.644043 757.474854,432.897186 761.447998,432.583435 
	C766.087952,432.217010 768.412537,433.784180 767.997009,438.668945 
	C767.918396,439.592377 768.260376,440.551544 768.401001,441.447876 
	C770.125916,441.640411 770.679565,440.427032 771.381104,439.601715 
	C774.753052,435.634552 779.167419,433.406616 784.025818,431.959381 
	C793.973877,428.996063 795.383057,430.035980 795.374084,440.099976 
	C795.370239,444.430695 795.273376,448.766052 795.442200,453.090576 
	C795.557251,456.038147 794.537048,457.151947 791.468994,457.330231 
	C774.916016,458.292145 768.005066,465.804871 768.010498,482.490479 
	C768.014099,493.650757 767.935425,504.812012 768.065735,515.970825 
	C768.111816,519.918884 766.890747,521.762878 762.581909,521.515137 
	C757.944763,521.248596 753.252991,521.439758 748.615845,521.813538 
	C744.484192,522.146484 742.882568,520.621643 742.919495,516.477417 
	C743.035339,503.485962 742.935913,490.492615 742.919678,477.000000 
z"/>
<path fill="#000000" opacity="1.000000" stroke="none" 
	d="
M632.264648,582.601257 
	C634.900146,583.848450 637.300232,584.650696 638.738464,587.347839 
	C640.265198,590.210938 643.567749,588.409607 646.294922,590.519348 
	C645.607422,587.027344 643.439575,587.420532 642.186218,586.526672 
	C639.286072,584.458557 638.273743,581.811462 640.420837,578.857300 
	C642.628540,575.819763 645.726746,575.770752 648.844543,577.608765 
	C649.888428,578.224182 650.694641,579.186646 650.228333,580.504150 
	C649.752319,581.849060 648.660339,582.070312 647.377441,581.631836 
	C646.336426,581.276062 645.326477,580.494446 643.718933,581.424988 
	C645.642517,583.800964 648.601501,583.526550 650.627747,585.600037 
	C651.560364,583.510315 652.077698,581.953369 652.900208,580.579163 
	C655.944946,575.492371 661.738159,574.935242 665.331848,579.325195 
	C666.873047,581.207947 667.962402,583.372620 666.992432,585.757874 
	C666.003296,588.190369 663.564941,587.130798 661.701294,587.358032 
	C660.249878,587.535156 658.785583,587.606445 656.792480,587.768188 
	C658.261719,590.814270 660.139526,590.382996 662.192627,589.470337 
	C663.452332,588.910400 664.912415,588.415222 665.696777,589.955078 
	C666.598999,591.726379 665.136902,592.698486 663.872742,593.506836 
	C659.837708,596.086975 655.047607,594.192688 651.669922,588.052795 
	C651.162170,591.768005 649.543152,593.942871 646.363281,594.574341 
	C643.250549,595.192505 641.020935,593.253479 638.472473,591.825928 
	C635.963867,593.939392 633.279480,595.601440 629.878418,594.076965 
	C628.237915,593.341614 626.032959,592.625061 626.767029,590.307129 
	C627.477722,588.062988 629.377563,589.019653 630.971985,589.545471 
	C631.531616,589.729980 632.203247,589.574890 632.906982,589.574890 
	C632.918457,586.963806 630.637207,587.288208 629.462097,586.407898 
	C626.587402,584.254578 625.816833,581.675171 627.796814,578.645935 
	C629.527283,575.998535 633.819092,575.588257 636.233093,577.645508 
	C637.138855,578.417480 638.055603,579.298096 637.476990,580.604858 
	C636.881653,581.949524 635.771179,581.833984 634.518982,581.434509 
	C633.552185,581.126099 631.873840,579.678040 632.264648,582.601257 
z"/>
<path fill="#000000" opacity="1.000000" stroke="none" 
	d="
M557.090942,575.385742 
	C557.443420,579.308044 556.732056,582.745972 558.033691,586.387878 
	C559.358276,590.094299 556.330566,593.497620 552.346436,594.144592 
	C551.697510,594.250000 551.026001,594.221558 550.364685,594.244995 
	C542.529053,594.522400 542.503723,594.522705 542.256958,586.630432 
	C542.169373,583.829163 542.172241,581.020996 542.255310,578.219604 
	C542.330139,575.696655 541.001099,572.070435 544.050842,571.163757 
	C547.703003,570.078003 551.954529,569.598755 555.393860,572.506714 
	C556.110413,573.112549 556.464783,574.146790 557.090942,575.385742 
M553.364075,586.016663 
	C551.408020,583.849121 549.025269,583.460083 547.023315,585.491577 
	C545.813477,586.719177 546.140442,588.954041 548.141479,589.432495 
	C550.405701,589.973877 553.262878,590.561890 553.364075,586.016663 
M551.051331,575.334167 
	C549.062378,575.185791 546.719543,574.734436 546.729614,577.753296 
	C546.736389,579.771667 548.571350,579.933838 550.064880,579.674500 
	C552.593872,579.235352 553.590454,577.943298 551.051331,575.334167 
z"/>
<path fill="#000000" opacity="1.000000" stroke="none" 
	d="
M796.754944,588.753418 
	C796.734192,586.199280 796.734192,584.076843 796.734192,581.649170 
	C793.588745,581.705933 791.084656,583.113037 788.565918,581.351196 
	C787.341309,580.494568 785.555664,581.187927 784.744446,582.733765 
	C783.755310,584.618958 783.733887,586.635986 784.890625,588.451477 
	C785.816223,589.904297 787.342224,590.032410 788.910583,589.641602 
	C790.637390,589.211304 793.072266,586.922791 793.759705,590.111206 
	C794.368713,592.935913 791.390930,593.788818 789.115662,594.261597 
	C785.676208,594.976379 782.752319,593.877014 781.049683,590.705688 
	C779.000488,586.888855 778.978516,582.874207 781.635559,579.396790 
	C783.816284,576.542725 787.096741,575.179016 790.511536,576.904602 
	C793.322693,578.325317 795.202148,578.179932 796.612061,575.362122 
	C797.403198,573.781006 799.104187,571.686951 799.970947,573.643616 
	C801.010681,575.991089 806.208557,576.884094 803.405518,580.247131 
	C800.239014,584.046387 800.198608,587.190430 803.218384,590.715698 
	C803.957642,591.578735 804.302551,592.438232 803.598389,593.368469 
	C802.929199,594.252441 801.866333,594.327576 800.856140,594.140076 
	C798.132629,593.634460 797.015442,591.760071 796.754944,588.753418 
z"/>
<path fill="#000000" opacity="1.000000" stroke="none" 
	d="
M438.202087,572.456787 
	C443.404877,577.668213 444.433746,582.724792 441.755676,588.528564 
	C439.775604,592.819702 435.589111,594.552795 429.017456,594.284485 
	C425.737732,594.150635 424.647705,592.689941 424.717285,589.633545 
	C424.819427,585.145630 424.933411,580.642639 424.681580,576.166382 
	C424.449677,572.044189 426.025879,570.381042 430.156860,570.685486 
	C432.821198,570.881775 435.484741,570.777100 438.202087,572.456787 
M430.768463,589.527710 
	C434.070831,590.086914 436.734985,589.211670 438.026031,585.905334 
	C439.230225,582.821472 439.318756,579.717529 436.913910,577.088074 
	C434.405060,574.344971 429.600647,574.605286 429.339752,577.534241 
	C428.997223,581.378967 428.138489,585.397217 430.768463,589.527710 
z"/>
<path fill="#000000" opacity="1.000000" stroke="none" 
	d="
M699.605286,578.622559 
	C697.624695,582.606201 698.437988,585.924988 701.342102,588.439758 
	C704.181396,590.898376 707.197632,590.106201 709.924988,587.795532 
	C710.919312,586.953186 712.040405,586.755188 713.026062,587.838562 
	C714.218994,589.150024 713.528015,590.285217 712.572266,591.339905 
	C712.238403,591.708313 711.855408,592.036743 711.470459,592.353821 
	C707.373962,595.728577 701.165833,595.181824 697.472290,591.126892 
	C693.036743,586.257385 693.195679,578.126099 697.819458,573.363403 
	C701.540527,569.530457 707.371338,569.142334 711.373352,572.583435 
	C712.680054,573.707031 714.737549,574.971436 713.063904,577.044495 
	C711.585266,578.875916 710.149780,577.317749 708.767090,576.393127 
	C705.157959,573.979736 702.181946,574.852539 699.605286,578.622559 
z"/>
<path fill="#000000" opacity="1.000000" stroke="none" 
	d="
M625.337769,582.000061 
	C626.681213,585.746399 625.639221,587.412598 621.915039,587.433533 
	C620.140442,587.443481 618.368408,587.918762 616.115295,588.254944 
	C617.593018,590.466736 619.172974,589.928955 620.663696,589.481873 
	C622.103699,589.050110 623.795471,588.227844 624.484192,590.183350 
	C625.226746,592.291931 623.246033,593.033997 621.805237,593.700623 
	C617.655701,595.620239 613.190674,593.960999 611.299805,589.926208 
	C609.189148,585.422424 610.887085,579.205811 614.783142,577.172546 
	C618.718140,575.119019 622.366943,576.673828 625.337769,582.000061 
z"/>
<path fill="#000000" opacity="1.000000" stroke="none" 
	d="
M523.482910,581.935364 
	C524.844849,586.126587 523.224487,587.491638 519.484192,587.435852 
	C517.777100,587.410400 515.877075,586.753296 514.080322,588.230042 
	C515.553711,590.385620 517.409302,589.999084 519.304443,589.325806 
	C520.670532,588.840576 522.058472,588.632935 522.650208,590.268005 
	C523.220642,591.843872 521.882812,592.655823 520.798279,593.393677 
	C517.420288,595.691772 512.653748,594.713074 510.220642,591.266235 
	C507.515900,587.434631 508.198456,580.856628 511.595093,578.020691 
	C514.797485,575.346924 519.184265,575.895569 522.146118,579.402039 
	C522.668213,580.020020 522.958069,580.834106 523.482910,581.935364 
z"/>
<path fill="#000000" opacity="1.000000" stroke="none" 
	d="
M880.556641,579.755127 
	C881.509827,582.548157 884.260864,585.441284 880.034058,587.109619 
	C877.647400,588.051697 874.770264,586.897583 871.928833,588.106384 
	C873.193970,590.397339 874.829956,590.558044 876.881531,589.619751 
	C878.255676,588.991211 879.953308,588.197998 880.700317,590.141785 
	C881.484680,592.182922 879.566833,593.062378 878.154785,593.799255 
	C874.790039,595.555298 870.039368,594.137146 868.065063,590.934753 
	C865.682373,587.069885 866.499084,580.855652 869.753174,578.090637 
	C872.756714,575.538513 876.589111,576.024414 880.556641,579.755127 
z"/>
<path fill="#000000" opacity="1.000000" stroke="none" 
	d="
M774.149353,594.198975 
	C769.798950,594.967590 766.514771,593.946228 764.526489,590.179871 
	C762.651184,586.627563 762.903381,583.082642 765.146301,579.801392 
	C767.838745,575.862610 773.304016,575.345581 776.370972,578.678589 
	C778.126770,580.586609 779.380615,582.961304 778.607117,585.486755 
	C777.757263,588.261475 775.007080,587.076233 772.990662,587.330383 
	C771.718750,587.490601 770.328247,587.001953 768.964783,588.168091 
	C769.741516,590.345886 771.279114,590.492493 773.181030,589.817017 
	C774.680908,589.284363 776.535950,587.914612 777.415649,590.222961 
	C778.291870,592.522522 776.075684,593.239746 774.149353,594.198975 
z"/>
<path fill="#000000" opacity="1.000000" stroke="none" 
	d="
M842.943481,591.274780 
	C840.797241,594.196960 833.924988,595.289673 830.910461,593.598145 
	C827.439331,591.650391 825.555603,585.686523 827.438843,581.652527 
	C829.295044,577.676086 832.159729,576.281372 837.006165,576.549072 
	C843.031006,576.881897 843.589111,579.755920 843.118713,584.388916 
	C842.901672,586.526245 843.030579,588.698730 842.943481,591.274780 
M838.386902,584.101135 
	C837.661438,582.250427 836.500549,580.972534 834.320618,581.214233 
	C832.604004,581.404419 831.652466,582.555603 831.406128,584.137146 
	C831.031128,586.544312 831.126099,589.159180 834.067871,589.673950 
	C837.572937,590.287109 838.684265,587.958801 838.386902,584.101135 
z"/>
<path fill="#000000" opacity="1.000000" stroke="none" 
	d="
M817.966614,578.800659 
	C819.635498,580.565857 821.629883,579.740601 823.357422,580.211975 
	C824.567505,580.542297 825.609680,581.079407 825.681335,582.448853 
	C825.766968,584.087158 824.660461,585.054138 823.211548,584.965759 
	C818.694641,584.690247 816.661926,586.387939 817.520142,591.101074 
	C817.762817,592.434265 817.246460,593.910645 815.461121,593.891602 
	C813.750427,593.873230 813.255005,592.449768 813.234741,591.094727 
	C813.150330,585.440613 813.142395,579.784180 813.207092,574.129761 
	C813.231445,571.999207 814.365356,570.729858 816.639526,570.725098 
	C817.970093,570.722351 819.324585,570.522095 820.625671,570.708252 
	C822.546387,570.983093 825.660156,569.634705 825.823059,572.853088 
	C825.970154,575.758972 823.040955,575.022583 821.210693,575.175171 
	C819.073730,575.353394 817.677124,576.063477 817.966614,578.800659 
z"/>
<path fill="#000000" opacity="1.000000" stroke="none" 
	d="
M491.933350,591.757812 
	C485.806915,596.298218 479.919983,594.570190 478.153992,587.967651 
	C477.126068,584.124512 478.049194,580.668274 481.238953,578.142883 
	C483.742188,576.161072 486.601166,575.424011 489.566010,577.167419 
	C493.077698,579.232483 494.398499,582.499390 494.136444,586.438965 
	C494.013794,588.282959 493.364899,589.996033 491.933350,591.757812 
M482.774963,587.697327 
	C486.156281,590.540405 489.007629,590.100830 489.653503,586.535034 
	C490.097748,584.082275 489.666687,581.474854 486.678528,581.298950 
	C482.885162,581.075684 482.194122,583.856567 482.774963,587.697327 
z"/>
<path fill="#000000" opacity="1.000000" stroke="none" 
	d="
M714.727356,582.859619 
	C717.473328,577.271240 721.311768,575.152893 725.324219,576.686157 
	C729.464233,578.268311 731.637573,583.436218 730.249939,588.399048 
	C729.060303,592.653931 725.422363,595.052307 721.232605,594.343994 
	C716.694092,593.576660 714.206299,589.381409 714.727356,582.859619 
M718.698425,586.303711 
	C719.583008,589.115662 721.351746,590.799622 724.282288,589.387573 
	C726.702026,588.221680 727.180054,585.828796 726.196594,583.373108 
	C725.526123,581.699158 724.110596,580.629333 722.272461,580.870361 
	C719.620361,581.218201 719.030945,583.396790 718.698425,586.303711 
z"/>
<path fill="#000000" opacity="1.000000" stroke="none" 
	d="
M600.023438,582.322998 
	C598.776855,585.378052 599.479919,588.233032 599.202881,591.020630 
	C599.067871,592.379150 598.877563,593.813354 597.092163,593.816040 
	C595.653076,593.818237 595.074829,592.643372 595.047424,591.447021 
	C594.956482,587.473999 594.788025,583.482422 595.066345,579.527283 
	C595.331543,575.759583 598.797607,577.124573 600.934021,576.465393 
	C604.066040,575.499268 606.593445,576.590027 608.033936,579.459473 
	C610.068909,583.513367 609.260071,587.878540 608.874756,592.144775 
	C608.779480,593.198975 607.965393,593.957336 606.784973,593.803589 
	C605.648376,593.655457 605.060608,592.762207 604.988708,591.727356 
	C604.828125,589.415649 604.887268,587.088562 604.722473,584.777344 
	C604.517090,581.897461 603.433533,580.226562 600.023438,582.322998 
z"/>
<path fill="#000000" opacity="1.000000" stroke="none" 
	d="
M736.749695,583.112915 
	C736.456909,585.953491 736.356018,588.430054 736.186218,590.901978 
	C736.094177,592.241638 735.933960,593.726807 734.144897,593.741455 
	C732.681274,593.753418 732.199951,592.461975 732.166870,591.316040 
	C732.052368,587.348694 732.025330,583.375000 732.117615,579.407288 
	C732.159180,577.618347 733.392456,576.970154 735.136108,576.831482 
	C738.514648,576.562500 742.162720,575.001099 744.566833,578.879150 
	C747.214600,583.150330 746.237610,587.833496 745.833435,592.415649 
	C745.757446,593.277161 745.007996,593.863586 744.064270,593.802246 
	C742.629639,593.709045 742.089050,592.654907 742.009949,591.433044 
	C741.860352,589.122437 742.049194,586.775146 741.733459,584.493469 
	C741.271484,581.155334 739.780457,579.843933 736.749695,583.112915 
z"/>
<path fill="#000000" opacity="1.000000" stroke="none" 
	d="
M748.079224,580.402954 
	C749.310913,574.790894 753.741028,576.895264 756.708801,576.581177 
	C759.613220,576.273743 761.536926,578.920776 761.928345,581.718018 
	C762.362915,584.823303 762.158508,588.024719 762.138184,591.183655 
	C762.130432,592.370483 761.823059,593.666687 760.329163,593.729309 
	C758.576721,593.802734 758.143921,592.376587 758.044922,591.018372 
	C757.875854,588.696228 757.915344,586.359741 757.819214,584.031250 
	C757.752136,582.407410 757.204407,580.922607 755.362488,580.822937 
	C753.512695,580.722839 752.710815,582.257324 752.526917,583.760864 
	C752.224915,586.229126 752.304932,588.741821 752.145081,591.230774 
	C752.068726,592.420593 751.771729,593.679749 750.259644,593.705811 
	C748.782715,593.731323 748.241333,592.484741 748.193604,591.329285 
	C748.049438,587.840576 748.094360,584.344116 748.079224,580.402954 
z"/>
<path fill="#000000" opacity="1.000000" stroke="none" 
	d="
M575.812988,584.036499 
	C575.090881,578.372131 578.473694,575.252075 583.185974,576.813599 
	C584.788940,577.344788 586.611389,578.202454 586.233765,580.157837 
	C585.766541,582.577332 583.905457,581.849792 582.296265,581.192871 
	C581.555786,580.890564 580.756104,580.492798 580.039734,581.490479 
	C580.464417,583.547913 582.487793,583.334229 583.852417,583.990356 
	C586.216980,585.127319 587.448120,586.893555 587.155212,589.520508 
	C586.836243,592.381653 584.990479,593.928162 582.302368,594.407959 
	C579.706970,594.871155 577.358948,594.228088 575.592285,592.129822 
	C575.024719,591.455811 574.879395,590.636780 575.380493,589.837708 
	C575.972046,588.894226 576.855469,588.527527 577.930908,588.802490 
	C579.242676,589.137939 580.462341,590.492004 582.297363,588.965332 
	C580.472473,586.839844 577.189209,586.902832 575.812988,584.036499 
z"/>
<path fill="#000000" opacity="1.000000" stroke="none" 
	d="
M672.708191,589.616943 
	C674.923401,589.632507 675.889160,589.097595 673.827271,587.643250 
	C672.630127,586.798950 671.065979,586.464294 669.898560,585.590881 
	C668.179932,584.305054 667.413330,582.485107 668.162415,580.308350 
	C668.935547,578.061584 670.557068,576.742920 672.887146,576.402466 
	C675.001343,576.093567 676.900452,576.746216 678.250427,578.385315 
	C679.541626,579.953186 678.968323,581.166687 677.071167,581.691345 
	C675.827942,582.035095 674.567993,580.551392 673.201904,581.707031 
	C673.640198,583.560547 675.516907,583.175720 676.670410,583.840820 
	C678.883057,585.116760 680.325073,586.792419 679.956665,589.446289 
	C679.607971,591.958313 678.236145,593.764893 675.630188,594.303833 
	C673.068909,594.833435 670.648621,594.539673 668.714417,592.559998 
	C667.963318,591.791321 667.642578,590.809631 668.348083,589.860596 
	C669.533081,588.266357 670.981812,588.979126 672.708191,589.616943 
z"/>
<path fill="#000000" opacity="1.000000" stroke="none" 
	d="
M573.660400,585.427185 
	C572.801880,588.820801 575.919922,593.533264 569.616882,594.144104 
	C561.757996,594.905640 559.825623,593.443909 559.431091,585.451416 
	C559.341248,583.631897 559.440979,581.803040 559.452881,579.978516 
	C559.461914,578.591797 559.529663,577.117981 561.396667,577.162415 
	C563.240662,577.206360 563.248169,578.759521 563.315186,580.087708 
	C563.398926,581.746521 563.304077,583.418579 563.460327,585.068420 
	C563.643982,587.007751 563.535767,589.575989 566.224731,589.604126 
	C569.043762,589.633606 569.344543,587.075928 569.556458,584.891296 
	C569.700439,583.407227 569.616760,581.902283 569.673828,580.408142 
	C569.724121,579.090454 569.668396,577.692322 571.577393,577.073853 
	C574.631226,579.051392 573.013000,582.395813 573.660400,585.427185 
z"/>
<path fill="#000000" opacity="1.000000" stroke="none" 
	d="
M856.296570,587.583252 
	C855.770874,593.315308 852.296326,595.840332 847.714966,594.107849 
	C846.024292,593.468567 843.958496,592.560608 844.777588,590.277466 
	C845.559753,588.097229 847.367859,588.865356 848.931824,589.688782 
	C849.688416,590.087219 850.490906,590.242615 851.375977,589.273315 
	C851.111694,586.989014 848.685120,587.413818 847.377014,586.466248 
	C845.462463,585.079346 844.423279,583.335571 844.809998,580.954773 
	C845.189758,578.616821 846.480652,576.965149 848.895935,576.537170 
	C851.520020,576.072205 854.434265,576.331055 854.934082,579.308472 
	C855.638550,583.505127 851.479858,580.493591 849.746277,582.162048 
	C852.070923,583.796326 855.212280,584.290100 856.296570,587.583252 
z"/>
<path fill="#000000" opacity="1.000000" stroke="none" 
	d="
M463.022766,588.058167 
	C462.649323,585.336853 463.082001,582.752380 464.487762,580.388245 
	C466.699890,576.668152 470.843201,575.177979 474.267731,576.956787 
	C475.865356,577.786682 477.873322,578.859863 477.138458,581.028259 
	C476.327820,583.420227 474.541412,582.096069 473.024658,581.485596 
	C471.109833,580.714966 469.424744,581.098938 468.237610,582.892334 
	C467.122681,584.576721 467.067902,586.315735 468.190491,588.024963 
	C469.385834,589.844910 471.035919,590.202271 472.950134,589.316345 
	C474.497711,588.600098 476.287689,587.601562 477.170044,589.784424 
	C478.084686,592.047180 475.928192,593.015015 474.404419,593.839722 
	C470.363861,596.026550 466.370605,594.045593 463.184937,588.283569 
	C463.003967,588.018982 463.022766,588.058167 463.022766,588.058167 
z"/>
<path fill="#000000" opacity="1.000000" stroke="none" 
	d="
M462.992126,588.001038 
	C461.361053,593.619324 458.703308,595.513794 454.236328,594.102783 
	C452.467316,593.544067 450.289459,592.670471 450.817902,590.508728 
	C451.501892,587.710449 453.557587,589.088562 455.201843,589.855469 
	C455.828644,590.147827 456.477142,590.232727 457.304138,589.449097 
	C457.482635,587.034424 454.987579,587.362610 453.716003,586.495789 
	C450.992401,584.639099 449.850006,582.245422 451.534210,579.257263 
	C453.310181,576.106445 456.213745,575.738647 459.309204,577.107178 
	C460.677063,577.711914 462.064301,578.827515 461.347443,580.592651 
	C460.670532,582.259460 459.249817,581.725464 457.944092,581.182129 
	C457.395996,580.953918 456.739502,580.986206 455.395844,580.795715 
	C457.303833,584.260559 461.682220,584.119141 462.805176,587.791321 
	C463.022766,588.058167 463.003967,588.018982 462.992126,588.001038 
z"/>
<path fill="#000000" opacity="1.000000" stroke="none" 
	d="
M505.520416,587.494568 
	C505.072266,588.802002 504.803223,589.761597 504.428040,590.677673 
	C503.805817,592.196716 503.319885,593.987671 501.247742,594.018372 
	C499.118561,594.049988 498.665802,592.195618 498.092468,590.685852 
	C496.859314,587.438354 495.712769,584.156982 494.584961,580.870850 
	C494.105286,579.473267 493.395020,577.760437 495.461151,577.143799 
	C497.375916,576.572327 497.955597,578.259644 498.500763,579.664001 
	C499.264008,581.630127 499.994873,583.608765 500.929718,586.085938 
	C503.041809,583.837891 503.114532,581.263611 504.073273,579.110168 
	C504.710632,577.678650 505.645386,576.328186 507.457794,577.133301 
	C509.124207,577.873535 508.442535,579.399597 508.046021,580.608032 
	C507.324677,582.806213 506.457916,584.956726 505.520416,587.494568 
z"/>
<path fill="#000000" opacity="1.000000" stroke="none" 
	d="
M860.838745,593.257812 
	C858.768738,591.131592 858.839966,588.802368 858.795776,586.475830 
	C858.761841,584.686523 859.225891,582.708618 857.928833,581.217590 
	C854.639404,577.436279 858.980408,575.772827 860.189453,573.371338 
	C860.716431,572.324646 862.803040,572.988403 862.820923,574.224670 
	C862.858459,576.823181 868.661133,577.128540 865.505676,580.427917 
	C862.056335,584.034729 862.255676,587.201538 865.338135,590.623840 
	C866.114929,591.486206 866.454346,592.442078 865.709290,593.243591 
	C864.376587,594.677368 862.740356,594.327209 860.838745,593.257812 
z"/>
<path fill="#000000" opacity="1.000000" stroke="none" 
	d="
M525.609619,589.902649 
	C525.438293,586.643738 525.173767,583.824463 525.139343,581.002441 
	C525.106750,578.324768 526.075439,576.413696 529.283508,576.838013 
	C530.825439,577.041992 532.861511,576.022644 533.652039,578.156250 
	C534.326477,579.976562 532.592834,580.679932 531.514832,581.665771 
	C528.924316,584.034973 530.401550,587.371033 529.584961,590.171326 
	C529.194031,591.511963 529.729553,593.599487 527.635498,593.672729 
	C525.500305,593.747253 525.788330,591.774475 525.609619,589.902649 
z"/>
<path fill="#000000" opacity="1.000000" stroke="none" 
	d="
M883.762695,591.473389 
	C883.713928,587.896301 883.659424,584.761719 883.717285,581.629272 
	C883.797668,577.275818 885.674866,575.857422 890.005737,576.682983 
	C892.011475,577.065308 892.864746,578.823303 891.524048,579.751526 
	C887.319336,582.662842 888.024963,586.812500 887.853943,590.851990 
	C887.804443,592.020203 887.499695,593.281921 886.233398,593.672241 
	C884.841614,594.101318 884.118408,593.196289 883.762695,591.473389 
z"/>
<path fill="#000000" opacity="1.000000" stroke="none" 
	d="
M445.966949,577.341797 
	C447.555786,577.136230 448.213959,577.856079 448.425659,578.912415 
	C449.250427,583.027893 449.072327,587.186096 448.717529,591.327698 
	C448.619751,592.468933 448.128815,593.720581 446.640625,593.722046 
	C445.112030,593.723511 444.667694,592.494507 444.733612,591.304810 
	C444.988190,586.710205 443.770508,582.020142 445.966949,577.341797 
z"/>
<path fill="#000000" opacity="1.000000" stroke="none" 
	d="
M592.523682,587.513428 
	C592.592407,589.238464 592.747192,590.567810 592.593018,591.860291 
	C592.474609,592.853516 591.894470,593.783447 590.660767,593.729187 
	C589.466492,593.676758 588.881836,592.809814 588.838135,591.757507 
	C588.666565,587.623047 588.545654,583.485352 588.499634,579.347717 
	C588.485840,578.109985 589.040771,576.971558 590.488953,576.957092 
	C592.210327,576.939941 592.726746,578.287354 592.739563,579.667114 
	C592.762573,582.144409 592.575806,584.623535 592.523682,587.513428 
z"/>
<path fill="#000000" opacity="1.000000" stroke="none" 
	d="
M684.720581,593.816711 
	C682.079651,594.106934 680.913147,593.063721 681.464661,590.770142 
	C681.752136,589.574585 682.891846,588.753418 684.106506,589.384949 
	C685.927124,590.331665 686.778564,591.779541 684.720581,593.816711 
z"/>
<path fill="#000000" opacity="1.000000" stroke="none" 
	d="
M589.004883,574.810181 
	C587.569336,572.467957 588.318542,571.118896 590.571350,570.745239 
	C591.840149,570.534729 592.883911,571.479431 592.887634,572.721436 
	C592.894958,575.176819 591.379639,575.690918 589.004883,574.810181 
z"/>
<path fill="#000000" opacity="1.000000" stroke="none" 
	d="
M896.326050,592.827026 
	C894.661133,594.590820 893.197266,594.567932 892.284607,592.627136 
	C891.653931,591.286011 892.281982,589.795044 893.700134,589.520081 
	C895.815186,589.110046 896.491028,590.621948 896.326050,592.827026 
z"/>
</svg>